<?xml version="1.0" standalone="no"?>
<!DOCTYPE svg PUBLIC "-//W3C//DTD SVG 20010904//EN"
 "http://www.w3.org/TR/2001/REC-SVG-20010904/DTD/svg10.dtd">
<svg version="1.0" xmlns="http://www.w3.org/2000/svg"
 width="431.000000pt" height="431.000000pt" viewBox="0 0 431.000000 431.000000"
 preserveAspectRatio="xMidYMid meet">
<metadata>
Created by potrace 1.14, written by Peter Selinger 2001-2017
</metadata>
<g transform="translate(0.000000,431.000000) scale(0.100000,-0.100000)"
fill="#000000" stroke="none">
<path d="M502 4160 l-52 -50 0 -1499 0 -1500 53 -15 c28 -8 73 -20 99 -26 l47
-12 3 -101 3 -102 270 -72 c149 -40 327 -88 397 -107 l127 -33 50 51 c40 41
51 59 51 84 0 35 6 37 62 22 l37 -11 3 -101 3 -101 125 -34 c69 -19 143 -39
165 -43 22 -5 144 -38 272 -73 l232 -64 50 52 c37 38 50 60 53 87 l3 35 48
-14 47 -14 0 -99 0 -99 53 -14 c65 -19 384 -104 582 -157 82 -22 152 -40 156
-40 4 0 30 22 58 49 43 41 51 55 51 85 0 20 1 36 3 36 1 0 23 -7 48 -14 l46
-14 52 52 51 52 0 1500 0 1500 -102 27 c-57 15 -161 42 -233 62 -374 101
-1662 446 -1677 450 -10 2 -119 31 -243 65 -124 33 -249 67 -278 74 -28 8
-188 50 -354 95 -166 45 -303 81 -305 81 -2 0 -27 -22 -56 -50z"/>
</g>
</svg>
