<?xml version="1.0" standalone="no"?>
<!DOCTYPE svg PUBLIC "-//W3C//DTD SVG 20010904//EN"
 "http://www.w3.org/TR/2001/REC-SVG-20010904/DTD/svg10.dtd">
<svg version="1.0" xmlns="http://www.w3.org/2000/svg"
 width="384.000000pt" height="384.000000pt" viewBox="0 0 384.000000 384.000000"
 preserveAspectRatio="xMidYMid meet">
<metadata>
Created by potrace 1.14, written by Peter Selinger 2001-2017
</metadata>
<g transform="translate(0.000000,384.000000) scale(0.100000,-0.100000)"
fill="#000000" stroke="none">
<path d="M447 3702 l-37 -38 0 -1331 c0 -1053 3 -1333 13 -1340 10 -8 133 -43
152 -43 3 0 5 38 5 85 0 47 3 85 6 85 3 0 52 -13 108 -29 123 -36 345 -95 486
-131 l105 -26 3 -91 3 -91 -53 13 c-29 7 -114 29 -188 49 -74 20 -202 55 -285
77 -82 23 -157 43 -166 45 -14 4 -15 -6 -11 -78 2 -46 7 -86 11 -90 3 -3 158
-47 344 -97 256 -69 342 -89 356 -81 32 17 70 69 77 105 7 37 8 37 77 18 15
-4 17 5 17 81 0 47 4 86 9 86 5 0 62 -15 128 -34 65 -19 138 -40 163 -46 25
-6 52 -12 60 -14 9 -2 76 -20 150 -40 74 -20 149 -40 165 -44 l30 -8 3 -87 c3
-104 12 -100 -139 -58 -220 61 -562 151 -564 148 -1 -1 1 -40 4 -87 l6 -84
345 -93 345 -92 48 47 c34 33 47 54 47 74 0 30 3 30 73 11 15 -4 17 5 17 81 0
47 3 86 8 86 12 0 304 -80 312 -85 4 -2 22 -7 41 -10 28 -5 213 -54 319 -84
24 -7 25 -12 28 -94 3 -103 9 -100 -122 -61 -159 46 -578 156 -580 152 -1 -2
0 -40 2 -85 l3 -82 32 -10 c18 -6 82 -24 142 -40 422 -112 495 -131 512 -131
29 0 103 81 103 113 0 26 1 26 46 20 43 -6 47 -4 85 33 l39 38 0 1338 c0 736
-2 1338 -6 1338 -5 0 -78 19 -584 155 -157 42 -328 88 -380 101 -52 14 -142
38 -200 54 -58 16 -141 38 -185 50 -44 12 -204 54 -355 95 -151 41 -437 117
-635 170 -198 53 -382 102 -409 110 -73 22 -88 19 -129 -23z m503 -363 c85
-22 158 -46 162 -52 4 -7 8 -289 8 -629 l0 -616 28 -11 27 -11 -27 5 -28 5 0
-78 0 -79 68 -18 c114 -30 102 14 102 -394 l0 -359 -97 28 c-54 15 -170 46
-258 70 -88 23 -204 54 -257 68 l-98 27 0 1071 0 1071 108 -28 c59 -16 177
-47 262 -70z m814 -218 c55 -16 126 -35 156 -41 100 -23 90 52 90 -654 l0
-623 80 -23 c44 -13 79 -25 76 -27 -2 -3 -35 5 -74 16 -38 12 -72 21 -76 21
-3 0 -6 -36 -6 -80 0 -57 4 -80 13 -80 6 0 45 -10 85 -21 l72 -22 0 -358 c0
-198 -2 -359 -4 -359 -8 0 -585 152 -656 173 l-45 13 -3 363 -2 362 21 -6 c12
-4 49 -15 84 -25 l62 -18 6 127 c4 69 7 388 7 709 0 320 3 582 6 582 3 0 52
-13 108 -29z m896 -240 c58 -16 168 -46 245 -67 77 -20 148 -41 158 -46 16 -8
17 -69 17 -1068 0 -614 -4 -1061 -9 -1064 -9 -6 -117 21 -461 115 -85 23 -175
47 -200 53 l-45 12 -3 362 c-1 199 -1 362 0 362 4 0 128 -35 157 -45 l21 -6 0
710 c0 391 3 711 7 711 4 0 55 -13 113 -29z m-1420 -875 c25 -8 36 -15 25 -15
-21 1 -98 27 -80 28 6 0 30 -6 55 -13z m170 -42 c29 -8 50 -17 48 -19 -5 -5
-161 35 -168 42 -7 8 59 -5 120 -23z m147 -43 c34 -10 64 -16 67 -13 3 3 6 0
6 -7 0 -7 -7 -10 -17 -7 -91 28 -136 44 -128 45 6 0 38 -8 72 -18z m738 -193
c73 -20 58 -26 -20 -8 -42 10 -79 21 -83 24 -8 8 47 0 103 -16z m199 -59 c21
-6 36 -12 34 -15 -6 -5 -150 37 -163 48 -5 5 13 2 40 -7 28 -8 67 -20 89 -26z"/>
</g>
</svg>
